<svg width="145" height="57" viewBox="0 0 145 57" fill="none" xmlns="http://www.w3.org/2000/svg">
<path d="M144.971 24.7695C144.913 24.6958 144.45 24.3461 144.147 24.1495C142.903 23.337 141.676 23.0141 140.239 23.1197C139.362 23.1846 138.183 23.4621 137.318 23.8093C136.371 24.1878 135.36 24.8425 134.575 25.5826C133.95 26.1717 133.469 26.8074 133.181 27.4222C132.961 27.8901 132.925 28.3072 133.049 28.9204C133.085 29.1027 133.178 29.4329 133.249 29.6432C133.27 29.7048 133.287 29.7618 133.286 29.7684C133.284 29.7926 132.867 29.9487 132.573 30.0356C131.64 30.3105 130.756 30.2844 130.02 29.9601C129.949 29.9295 129.932 29.9266 129.937 29.9433C129.941 29.9555 129.99 30.0341 130.047 30.1178C130.235 30.3989 130.296 30.4993 130.335 30.5892C130.356 30.639 130.389 30.7004 130.409 30.7256L130.444 30.773L130.556 30.7429C130.757 30.6909 131.171 30.6044 131.713 30.5032C132.502 30.355 132.889 30.2651 133.284 30.1399C133.376 30.11 133.462 30.0834 133.474 30.0799C133.487 30.0756 133.557 30.1086 133.661 30.1695C134.576 30.7029 135.445 30.8655 136.375 30.6797C136.657 30.6233 137.087 30.4873 137.401 30.3548C138.404 29.9308 139.242 29.2674 139.841 28.4212C139.982 28.2209 140.029 28.1407 140.223 27.7666C140.456 27.3205 140.516 27.2208 140.707 26.9728C141.249 26.2654 141.981 25.7239 142.894 25.3564C143.317 25.1857 143.666 25.0904 144.549 24.9048C144.794 24.8539 144.995 24.8104 144.997 24.809C144.998 24.8082 144.987 24.79 144.971 24.7695Z" fill="#FFC300"/>
<path d="M132.741 15.0209C132.825 15.0623 133.261 15.4453 133.515 15.7011C134.564 16.754 135.13 17.8895 135.318 19.3182C135.433 20.1905 135.401 21.4007 135.237 22.319C135.059 23.3225 134.624 24.4461 134.059 25.3644C133.609 26.0968 133.085 26.6973 132.541 27.1037C132.128 27.4145 131.727 27.5348 131.101 27.5377C130.916 27.5398 130.573 27.5163 130.353 27.4894C130.288 27.4813 130.229 27.4758 130.223 27.478C130.2 27.485 130.132 27.9252 130.106 28.2308C130.027 29.1999 130.232 30.06 130.7 30.7154C130.744 30.7782 130.75 30.7945 130.733 30.7925C130.72 30.7915 130.633 30.7592 130.54 30.7211C130.226 30.5942 130.115 30.554 130.019 30.5344C129.966 30.5241 129.9 30.5044 129.871 30.4902L129.817 30.4651L129.824 30.3497C129.834 30.1421 129.834 29.7187 129.823 29.1682C129.808 28.3648 129.817 27.9682 129.86 27.5562C129.87 27.4598 129.879 27.3703 129.88 27.3576C129.881 27.3438 129.835 27.2826 129.754 27.1926C129.045 26.4051 128.71 25.5875 128.702 24.639C128.7 24.3516 128.746 23.903 128.812 23.5686C129.023 22.5008 129.502 21.5454 130.209 20.7867C130.376 20.6079 130.445 20.5456 130.772 20.2791C131.161 19.9604 131.247 19.8811 131.451 19.6439C132.033 18.9689 132.414 18.1421 132.588 17.1735C132.67 16.7253 132.692 16.3641 132.694 15.4611C132.694 15.2118 132.696 15.0053 132.697 15.0032C132.697 15.0032 132.717 15.0094 132.741 15.0209Z" fill="#FFC300"/>
<path d="M67.832 17.856C66.936 18.368 65.8693 18.624 64.632 18.624C63.736 18.624 63.032 18.368 62.52 17.856C62.008 17.3013 61.752 16.5333 61.752 15.552C61.752 14.1013 62.456 12.9493 63.864 12.096C65.3147 11.2 67.192 10.752 69.496 10.752C72.2267 10.752 74.36 11.3493 75.896 12.544C77.4747 13.7387 78.264 15.36 78.264 17.408V28.48C78.264 29.6747 78.6907 30.272 79.544 30.272C80.3547 30.272 81.144 29.952 81.912 29.312L82.424 29.952C80.8453 31.7013 78.968 32.576 76.792 32.576C75.512 32.576 74.5307 32.256 73.848 31.616C73.208 30.976 72.824 29.9733 72.696 28.608H72.44C71.7573 29.8453 70.84 30.8267 69.688 31.552C68.5787 32.2347 67.2987 32.576 65.848 32.576C64.2267 32.576 62.9253 32.0853 61.944 31.104C60.9627 30.08 60.472 28.7573 60.472 27.136C60.472 25.3013 61.3467 23.8507 63.096 22.784C64.8453 21.7173 67.2133 21.184 70.2 21.184C70.7547 21.184 71.544 21.2267 72.568 21.312V18.112C72.568 16.0213 72.312 14.528 71.8 13.632C71.288 12.6933 70.456 12.224 69.304 12.224C68.4933 12.224 67.8533 12.48 67.384 12.992C66.9147 13.504 66.68 14.1653 66.68 14.976C66.68 16.256 67.064 17.216 67.832 17.856ZM68.792 29.376C71.3093 29.376 72.568 27.0933 72.568 22.528C70.4347 22.528 68.8347 22.8907 67.768 23.616C66.7013 24.2987 66.168 25.28 66.168 26.56C66.168 27.4133 66.4027 28.096 66.872 28.608C67.3413 29.12 67.9813 29.376 68.792 29.376Z" fill="white"/>
<path d="M92.743 30.464C94.023 30.464 95.111 30.2293 96.007 29.76C96.9457 29.2907 97.8203 28.608 98.631 27.712L99.399 28.224C98.503 29.504 97.3297 30.5493 95.879 31.36C94.4283 32.1707 92.743 32.576 90.823 32.576H90.119L88.391 34.688L88.583 34.88C88.967 34.752 89.4363 34.688 89.991 34.688C91.5697 34.688 92.935 35.072 94.087 35.84C95.2817 36.6507 95.879 37.8027 95.879 39.296C95.879 40.7893 95.2177 41.984 93.895 42.88C92.5723 43.8187 90.887 44.288 88.839 44.288C87.3883 44.288 86.151 44.0107 85.127 43.456C84.103 42.944 83.591 42.1973 83.591 41.216C83.591 40.576 83.8043 40 84.231 39.488C84.7003 39.0187 85.319 38.784 86.087 38.784C86.855 38.784 87.495 38.912 88.007 39.168C87.8363 39.3387 87.687 39.5947 87.559 39.936C87.431 40.32 87.367 40.704 87.367 41.088C87.367 41.728 87.5163 42.2187 87.815 42.56C88.1563 42.944 88.583 43.136 89.095 43.136C89.863 43.136 90.4603 42.752 90.887 41.984C91.3137 41.2587 91.527 40.4053 91.527 39.424C91.527 38.3573 91.271 37.5253 90.759 36.928C90.247 36.3307 89.543 36.032 88.647 36.032C87.9217 36.032 87.1963 36.2453 86.471 36.672L85.703 35.904L88.583 32.384C86.151 31.9147 84.2097 30.72 82.759 28.8C81.3083 26.88 80.583 24.5547 80.583 21.824C80.583 18.4533 81.5857 15.7653 83.591 13.76C85.5963 11.7547 88.263 10.752 91.591 10.752C93.9377 10.752 95.8363 11.2853 97.287 12.352C98.7377 13.376 99.463 14.72 99.463 16.384C99.463 17.792 99.0363 18.9013 98.183 19.712C97.3297 20.5227 96.2843 20.928 95.047 20.928C94.0657 20.928 93.1697 20.672 92.359 20.16C93.2977 19.3067 93.767 18.112 93.767 16.576C93.767 15.3387 93.511 14.336 92.999 13.568C92.487 12.7573 91.7403 12.352 90.759 12.352C89.6497 12.352 88.7323 13.2267 88.007 14.976C87.3243 16.6827 86.983 18.9227 86.983 21.696C86.983 24.3413 87.4737 26.4747 88.455 28.096C89.479 29.6747 90.9083 30.464 92.743 30.464Z" fill="white"/>
<path d="M106.307 17.856C105.411 18.368 104.344 18.624 103.107 18.624C102.211 18.624 101.507 18.368 100.995 17.856C100.483 17.3013 100.227 16.5333 100.227 15.552C100.227 14.1013 100.931 12.9493 102.339 12.096C103.79 11.2 105.667 10.752 107.971 10.752C110.702 10.752 112.835 11.3493 114.371 12.544C115.95 13.7387 116.739 15.36 116.739 17.408V28.48C116.739 29.6747 117.166 30.272 118.019 30.272C118.83 30.272 119.619 29.952 120.387 29.312L120.899 29.952C119.32 31.7013 117.443 32.576 115.267 32.576C113.987 32.576 113.006 32.256 112.323 31.616C111.683 30.976 111.299 29.9733 111.171 28.608H110.915C110.232 29.8453 109.315 30.8267 108.163 31.552C107.054 32.2347 105.774 32.576 104.323 32.576C102.702 32.576 101.4 32.0853 100.419 31.104C99.4377 30.08 98.947 28.7573 98.947 27.136C98.947 25.3013 99.8217 23.8507 101.571 22.784C103.32 21.7173 105.688 21.184 108.675 21.184C109.23 21.184 110.019 21.2267 111.043 21.312V18.112C111.043 16.0213 110.787 14.528 110.275 13.632C109.763 12.6933 108.931 12.224 107.779 12.224C106.968 12.224 106.328 12.48 105.859 12.992C105.39 13.504 105.155 14.1653 105.155 14.976C105.155 16.256 105.539 17.216 106.307 17.856ZM107.267 29.376C109.784 29.376 111.043 27.0933 111.043 22.528C108.91 22.528 107.31 22.8907 106.243 23.616C105.176 24.2987 104.643 25.28 104.643 26.56C104.643 27.4133 104.878 28.096 105.347 28.608C105.816 29.12 106.456 29.376 107.267 29.376Z" fill="white"/>
<path d="M127.186 28.352C127.186 29.632 127.591 30.272 128.402 30.272C129.213 30.272 130.002 29.952 130.77 29.312L131.282 29.952C129.703 31.7013 127.847 32.576 125.714 32.576C124.178 32.576 123.069 32.192 122.386 31.424C121.703 30.6133 121.362 29.312 121.362 27.52V14.848C121.362 14.2507 121.085 13.952 120.53 13.952H118.546L118.354 13.248C119.207 12.5227 120.274 11.9253 121.554 11.456C122.834 10.9867 124.114 10.752 125.394 10.752C125.906 10.752 126.333 10.88 126.674 11.136C127.015 11.392 127.186 11.7333 127.186 12.16V28.352ZM127.314 0.384003C128.893 1.024 129.682 1.984 129.682 3.264C129.682 4.75734 128.743 5.824 126.866 6.464L121.618 8.384L120.786 7.36L127.314 0.384003Z" fill="white"/>
<path d="M14.656 34.752C16.3627 34.752 17.8987 35.2 19.264 36.096C20.672 36.9493 21.76 38.144 22.528 39.68C23.3387 41.216 23.744 42.944 23.744 44.864C23.744 47.0827 23.2107 49.088 22.144 50.88C21.12 52.6293 19.6907 54.016 17.856 55.04C16.0213 56.064 13.9733 56.576 11.712 56.576C10.176 56.576 8.64001 56.3413 7.10401 55.872C5.56801 55.4027 4.30934 54.7627 3.32801 53.952V28.672C3.32801 28.3307 3.26401 28.096 3.13601 27.968C3.00801 27.84 2.79467 27.776 2.49601 27.776H0.512007L0.320007 27.136C1.13067 26.368 2.17601 25.7707 3.45601 25.344C4.77867 24.8747 6.08001 24.64 7.36001 24.64C7.91467 24.64 8.34134 24.768 8.64001 25.024C8.98134 25.2373 9.15201 25.5573 9.15201 25.984V36.736C9.79201 36.096 10.5813 35.6053 11.52 35.264C12.5013 34.9227 13.5467 34.752 14.656 34.752ZM12.032 55.104C15.5733 55.104 17.344 52.0533 17.344 45.952C17.344 42.9227 16.896 40.6187 16 39.04C15.1467 37.4187 13.8667 36.608 12.16 36.608C11.0933 36.608 10.0907 36.928 9.15201 37.568V54.464C10.0907 54.8907 11.0507 55.104 12.032 55.104Z" fill="white"/>
<path d="M23.522 45.696C23.522 42.3253 24.482 39.6587 26.402 37.696C28.3647 35.7333 31.01 34.752 34.338 34.752C37.666 34.752 40.3113 35.7547 42.274 37.76C44.2367 39.7227 45.218 42.368 45.218 45.696C45.218 49.024 44.2367 51.6693 42.274 53.632C40.3113 55.5947 37.666 56.576 34.338 56.576C31.01 56.576 28.3647 55.5947 26.402 53.632C24.482 51.6693 23.522 49.024 23.522 45.696ZM38.754 45.824C38.754 42.9653 38.3487 40.64 37.538 38.848C36.7273 37.0133 35.7033 36.096 34.466 36.096C33.1007 36.096 31.9913 36.992 31.138 38.784C30.2847 40.5333 29.858 42.8373 29.858 45.696C29.858 48.5973 30.242 50.9013 31.01 52.608C31.8207 54.3147 32.8873 55.168 34.21 55.168C35.5327 55.168 36.6207 54.3147 37.474 52.608C38.3273 50.8587 38.754 48.5973 38.754 45.824Z" fill="white"/>
<path d="M66.323 41.792C66.2803 39.36 65.8537 37.5893 65.043 36.48C64.2323 35.328 62.9523 34.752 61.203 34.752C59.539 34.752 58.0457 35.4347 56.723 36.8C55.4003 38.1653 54.4617 39.8293 53.907 41.792V36.544C53.907 36.1173 53.7363 35.7973 53.395 35.584C53.0963 35.328 52.6697 35.2 52.115 35.2C50.835 35.2 49.555 35.4347 48.275 35.904C46.995 36.3733 45.9283 36.9707 45.075 37.696L45.267 38.336H47.315C47.8697 38.336 48.147 38.656 48.147 39.296V51.776C48.147 52.8427 48.0403 53.568 47.827 53.952C47.6137 54.2933 47.1657 54.5493 46.483 54.72L45.587 54.912L45.971 56H55.251L55.763 55.36L55.251 54.72C54.739 53.9947 54.3763 53.248 54.163 52.48C53.9923 51.712 53.907 50.6667 53.907 49.344C53.907 46.3573 54.291 43.7333 55.059 41.472C55.827 39.168 56.8937 38.016 58.259 38.016C59.8803 38.016 60.691 39.2533 60.691 41.728V56H67.795L68.307 55.36L67.795 54.72C67.3257 53.9947 66.9843 53.248 66.771 52.48C66.6003 51.712 66.4937 50.6667 66.451 49.344C66.451 46.3573 66.835 43.7333 67.603 41.472C68.371 39.168 69.4377 38.016 70.803 38.016C72.4243 38.016 73.235 39.2533 73.235 41.728V50.944C73.235 53.0347 73.555 54.5067 74.195 55.36C74.835 56.1707 75.9443 56.576 77.523 56.576C79.6563 56.576 81.5123 55.7013 83.091 53.952L82.579 53.312C81.811 53.952 81.0217 54.272 80.211 54.272C79.4003 54.272 78.995 53.632 78.995 52.352V42.24C78.995 39.68 78.5683 37.8027 77.715 36.608C76.9043 35.3707 75.5817 34.752 73.747 34.752C72.211 34.752 70.7603 35.4133 69.395 36.736C68.0297 38.0587 67.0483 39.744 66.451 41.792H66.323Z" fill="white"/>
</svg>
